inDegrees=yes
name=ik_data_arm_r
DataType=double
version=3
OpenSimVersion=4.5
endheader
time	pelvis_tilt	pelvis_list	pelvis_rotation	pelvis_tx	pelvis_ty	pelvis_tz	hip_flexion_r	hip_adduction_r	hip_rotation_r	knee_angle_r	knee_angle_r_beta	ankle_angle_r	subtalar_angle_r	mtp_angle_r	hip_flexion_l	hip_adduction_l	hip_rotation_l	knee_angle_l	knee_angle_l_beta	ankle_angle_l	subtalar_angle_l	mtp_angle_l	lumbar_extension	lumbar_bending	lumbar_rotation	arm_flex_r	arm_add_r	arm_rot_r	elbow_flex_r	pro_sup_r	wrist_flex_r	wrist_dev_r	arm_flex_l	arm_add_l	arm_rot_l	elbow_flex_l	pro_sup_l	wrist_flex_l	wrist_dev_l
25	-0.7947487417009583	-10.88940330271158	-7.005436844336582	0	0.9399999999999999	0	43.28905397224405	-10.18443301313791	0	60.60659657072874	1.057784658587121	-5.027622398014864	0	0	43.28905397224405	-10.18443301313791	0	60.60659657072874	1.057784658587121	-5.027622398014864	0	0	0.5225071338726486	-12.18693494872462	-9.199726865856784	0.3567476085560099	-15.6572239906739	-6.994864410164611	0.02360381342029374	45.01643105753696	0	-1.141474822051713e-68	0	-11.54060233011258	0	75.54342302647873	45.01643105753696	0	-1.141474822051713e-68
26	-0.7078599306595754	-11.45289302503441	-7.268187537858886	0	0.9399999999999999	0	43.28911397021862	-10.1844109874326	0	60.60657953568302	1.057784361269485	-5.027618114849976	0	0	43.28911397021862	-10.1844109874326	0	60.60657953568302	1.057784361269485	-5.027618114849976	0	0	0.6296876755945205	-12.74288526832687	-9.473372891925155	0.4966105520658294	-16.24994888826203	-7.29396881808263	0.02041975352483537	45.01642949868304	0	-2.110041503045764e-36	0	-11.54066539259037	0	75.54340398488448	45.01642949868304	0	-2.110041503045764e-36
27	-0.5258613945638375	-11.73281677860209	-7.438414543347706	0	0.9399999999999999	0	43.32773174904175	-10.1714905937869	0	60.59563577761791	1.057593356658707	-5.025197573649546	0	0	43.32773174904175	-10.1714905937869	0	60.59563577761791	1.057593356658707	-5.025197573649546	0	0	0.8245090055113755	-12.9425791043831	-9.646926253719544	0.710175358493372	-16.58248460385425	-7.581130127281109	0.02168461332403267	45.01549044628564	0	2.694034605743505e-36	0	-11.58195404383233	0	75.53114715906146	45.01549044628564	0	2.694034605743505e-36
28	-0.688423605534125	-11.78893100812608	-7.380148342273881	0	0.9399999999999999	0	43.3278102997286	-10.17146284849134	0	60.59561357355815	1.057592969124757	-5.025192269107241	0	0	43.3278102997286	-10.17146284849134	0	60.59561357355815	1.057592969124757	-5.025192269107241	0	0	0.6791885373422589	-13.01653451664196	-9.556759935970764	0.5961878151761568	-16.68203927603531	-7.461237354834272	0.01847244900648543	45.01548845925043	0	-6.226226302100253e-69	0	-11.58203696661311	0	75.53112222887556	45.01548845925043	0	-6.226226302100253e-69
29	-0.7817629888863699	-11.71355706941942	-7.454850024235718	0	0.9399999999999999	0	43.327873388505	-10.17144067164695	0	60.59559567830846	1.057592656793729	-5.025188033593134	0	0	43.327873388505	-10.17144067164695	0	60.59559567830846	1.057592656793729	-5.025188033593134	0	0	0.5593550072229073	-12.95680542389833	-9.60319164002447	0.4542388057189898	-16.64197796661686	-7.465763336482159	0.01951177415818783	45.01548686956308	0	3.984784833344162e-66	0	-11.58210373398009	0	75.53110220587679	45.01548686956308	0	3.984784833344162e-66
30	-0.8101761851269653	-11.41549208050609	-7.633644340166818	0	0.9399999999999999	0	43.33788793652139	-10.16817142668551	0	60.59268434188517	1.05754184438751	-5.024578362874734	0	0	43.33788793652139	-10.16817142668551	0	60.59268434188517	1.05754184438751	-5.024578362874734	0	0	0.3900304155767992	-12.68564076860759	-9.690921546315618	0.1764781163351945	-16.49392591882756	-7.426539047946887	0.02344907875705159	45.01524819417876	0	0	0	-11.59294852456198	0	75.52792367242085	45.01524819417876	0	0
31	-0.6920827705787839	-10.9987645415685	-7.614958287226117	0	0.9399999999999999	0	43.3406573174637	-10.16750278945572	0	60.59169842993875	1.05752463697791	-5.024461483425378	0	0	43.3406573174637	-10.16750278945572	0	60.59169842993875	1.05752463697791	-5.024461483425378	0	0	0.4566683159437406	-12.25472003256711	-9.687677844102135	0.1723848965027003	-16.05291886508689	-7.426728460918208	0.0271068423439693	45.01519648492831	0	0	0	-11.59641345869069	0	75.52704451967126	45.01519648492831	0	0
32	-0.6722160670696029	-10.57073777534152	-7.049105193109527	0	0.9399999999999999	0	43.39126115790165	-10.15205164734585	0	60.57708846138858	1.057269644923096	-5.021660423641812	0	0	43.39126115790165	-10.15205164734585	0	60.57708846138858	1.057269644923096	-5.021660423641812	0	0	0.4827672422242241	-11.8110715130796	-9.080989924668337	0.2420242461855241	-15.85022538140239	-6.889628657642352	0.08166515436773331	45.01404609441769	0	0	0	-11.6518563507196	0	75.51098264500018	45.01404609441769	0	0
33	-0.5935640810155521	-9.982982780528532	-6.499598055561422	0	0.9399999999999999	0	43.39583076875244	-10.15104084288302	0	60.57544222761739	1.057240912723532	-5.021489322739688	0	0	43.39583076875244	-10.15104084288302	0	60.57544222761739	1.057240912723532	-5.021489322739688	0	0	0.5882187901436874	-11.19988971061026	-8.56458831582929	0.358270928923124	-15.18762595843573	-6.429461087901827	0.01990805039952349	45.01396605987544	0	-2.694034605743505e-36	0	-11.65769358450431	0	75.50953195506429	45.01396605987544	0	-2.694034605743505e-36
34	-0.5825707270041814	-9.239735728522787	-6.130377990247037	0	0.9399999999999999	0	43.40186918941169	-10.14969961943873	0	60.57326869983093	1.057202977507274	-5.021261866399086	0	0	43.40186918941169	-10.14969961943873	0	60.57326869983093	1.057202977507274	-5.021261866399086	0	0	0.5765109638224264	-10.44612706813849	-8.201626881986959	0.3060424357316732	-14.41664707178551	-6.075326854736616	0.01969225486875289	45.01385999828469	0	0	0	-11.66540245463089	0	75.50761497188739	45.01385999828469	0	0
35	-0.6166445233467767	-8.513748174206182	-5.725761451403227	0	0.9399999999999999	0	43.40788282473897	-10.14837201324391	0	60.57110382493871	1.057165193312511	-5.021037187186815	0	0	43.40788282473897	-10.14837201324391	0	60.57110382493871	1.057165193312511	-5.021037187186815	0	0	0.5268468668202585	-9.713907169786477	-7.79582961815203	0.2265274180098472	-13.67357398180657	-5.671391134516312	0.03013608511772177	45.01375485014031	0	0	0	-11.67309258331444	0	75.50570585282321	45.01375485014031	0	0
